<svg width="512mm" height="512mm" version="1.1" viewBox="0 0 1935.1 1935.1" xmlns="http://www.w3.org/2000/svg">
<path d="m1759.2 307.87h-1583.3c-97.017 0-175.91 78.953-175.91 175.92v967.54c0 96.967 78.892 175.91 175.91 175.91h1583.3c97.017 0 175.91-78.942 175.91-175.91v-967.54c0-96.98-78.906-175.92-175.92-175.92zm-791.64 351.82c0 48.538-39.477 87.967-87.967 87.967-48.501 0-87.967-39.429-87.967-87.967 0-48.527 39.466-87.954 87.967-87.954 48.49 0 87.967 39.429 87.967 87.954zm-791.64-175.91h507.21c-41.881 46.716-67.403 108.37-67.403 175.91 0 145.52 118.38 263.9 263.9 263.9 145.52 0 263.87-118.37 263.87-263.9 0-67.535-25.533-129.19-67.403-175.91h683.13l0.048 447.41-245.72-245.72c-34.362-34.362-90.031-34.362-124.38 0l-509.55 509.55-157.7-157.71c-34.362-34.362-90.031-34.362-124.38 0l-414.01 414.01h-7.5673v-967.54zm711.23 967.54h-454.9l227.45-227.46zm248.76 0-131.93-131.94 447.33-447.36 307.95 307.95 0.037 271.36z" fill="#8c8cdc" stroke-width="121.47"/>
</svg>
