<svg width="512mm" height="512mm" version="1.1" viewBox="0 0 1935.1 1935.1" xmlns="http://www.w3.org/2000/svg">
<path d="m1935.1 604.71c0-133.38-108.5-241.88-241.88-241.88-105.12 0-194.74 67.407-228.01 161.26h-255.75v-80.636c0-44.56-36.109-80.636-80.636-80.636h-322.5c-44.526 0-80.636 36.066-80.636 80.636v80.636h-255.75c-33.282-93.852-122.89-161.26-228.01-161.26-133.38 0-241.9 108.5-241.9 241.88 0 133.38 108.52 241.9 241.9 241.9 34.427 0 67.197-7.2931 96.871-20.309-61.996 77.151-110.09 165.85-140.43 262.2h-117.7c-44.526 0-80.636 36.063-80.636 80.636v322.5c0 44.56 36.109 80.636 80.636 80.636h322.5c44.526 0 80.636-36.063 80.636-80.636v-322.5c0-44.56-36.109-80.636-80.636-80.636h-33.569c65.503-161.31 194.81-290.62 356.09-356.11v33.603c0 44.56 36.109 80.636 80.636 80.636h322.5c44.526 0 80.636-36.066 80.636-80.636v-33.594c161.27 65.493 290.58 194.8 356.07 356.09h-33.582c-44.526 0-80.636 36.063-80.636 80.636v322.5c0 44.56 36.109 80.636 80.636 80.636h322.5c44.526 0 80.636-36.063 80.636-80.636v-322.5c0-44.56-36.109-80.636-80.636-80.636h-117.69c-30.331-96.346-78.42-185.04-140.42-262.2 29.684 13.038 62.453 20.332 96.88 20.332 133.39 0 241.9-108.53 241.9-241.9zm-1612.6 806.28h-161.26v-161.25h161.26zm1451.3 0h-161.26v-161.25h161.26zm-302.18-709.43c-6.8588-5.5116-13.796-10.934-20.844-16.234h14.408c1.9597 5.5114 4.1085 10.923 6.4357 16.234zm-1001.7-16.223h14.397c-7.037 5.289-13.974 10.712-20.833 16.212 2.3383-5.3001 4.4761-10.711 6.4357-16.212zm-228.01 0c-44.449 0-80.636-36.143-80.636-80.636 0-44.483 36.175-80.624 80.636-80.624 44.449 0 80.624 36.143 80.624 80.624 0 44.493-36.187 80.636-80.624 80.636zm806.28 0h-161.27v-161.25h161.26v161.25zm564.4-80.636c0-44.483 36.177-80.624 80.636-80.624 44.449 0 80.636 36.143 80.636 80.624 0 44.493-36.187 80.636-80.636 80.636-44.459 0-80.636-36.143-80.636-80.636z" fill="#f2f2f2" stroke-width="111.34"/>
</svg>
