<svg width="512mm" height="512mm" fill="none" version="1.1" viewBox="0 0 1935.1 1935.1" xmlns="http://www.w3.org/2000/svg">
<path d="m550.18 56.916c-73.572 0-132.8 59.23-132.8 132.8v1555.7c0 73.572 59.228 132.8 132.8 132.8s132.8-59.228 132.8-132.8v-1555.7c0-73.572-59.23-132.8-132.8-132.8zm-417.38 189.72c-73.572 0-132.8 59.23-132.8 132.8v1214.2c0 73.572 59.23 132.8 132.8 132.8 73.572 0 132.8-59.23 132.8-132.8v-1214.2c0-73.572-59.228-132.8-132.8-132.8zm1669.5 37.943c-73.572 0-132.8 59.23-132.8 132.8v1214.2c0 73.572 59.23 132.8 132.8 132.8s132.8-59.23 132.8-132.8v-1214.2c0-73.572-59.228-132.8-132.8-132.8zm-834.76 37.943c-73.572 0-132.8 59.23-132.8 132.8v1062.4c0 73.572 59.228 132.8 132.8 132.8 73.572 0 132.8-59.23 132.8-132.8v-1062.4c0-73.572-59.23-132.8-132.8-132.8zm417.38 75.889c-73.572 0-132.8 59.228-132.8 132.8v872.7c0 73.572 59.23 132.8 132.8 132.8s132.8-59.23 132.8-132.8v-872.7c0-73.572-59.23-132.8-132.8-132.8z" fill="#a9dc76" stroke-width="37.944"/>
</svg>
