<svg width="512mm" height="512mm" version="1.1" viewBox="0 0 1935.1 1935.1" xmlns="http://www.w3.org/2000/svg">
<path d="m425.83 279.9v145.23c0 80.978-65.638 146.62-146.62 146.62-80.961 0-146.62-65.638-146.62-146.62v-237.86c0-103.42 83.85-187.27 187.28-187.27h1295.3c103.42 0 187.27 83.85 187.27 187.27v237.86c0 80.978-65.655 146.62-146.62 146.62-80.978 0-146.62-65.638-146.62-146.62v-145.23h-377.73v1386h101.39c74.329 0 134.6 60.252 134.6 134.6 0 74.329-60.269 134.58-134.6 134.58h-530.75c-74.329 0-134.6-60.252-134.6-134.58 0-74.346 60.269-134.6 134.6-134.6h101.75v-1386z" clip-rule="evenodd" fill="#fff" fill-rule="evenodd" stroke-width="156.06"/>
</svg>
