<svg version="1.1" viewBox="0 0 512 512" xmlns="http://www.w3.org/2000/svg">
<path d="m368.98 278.47c38.667-14.19 68.353 3.9184 77.061 24.816l-28.081 18.286c-4.1519-7.4924-12.999-15.154-23.215-15.701-9.2643-0.49631-17.876 4.3455-18.151 16.874 0.55014 18.256 24.555 18.253 53.339 36.487 21.087 13.358 25.036 23.568 26.986 42.023 1.4448 13.678-1.1279 37.311-28.04 49.253-29.282 12.993-81.243 8.2571-99.081-30.977l29.388-16.98c14.694 27.918 52.802 27.851 60.285 9.4646 7.3067-17.954-14.734-24.975-42.087-37.104-11.897-6.1347-30.306-15.798-35.831-39.408-4.169-17.817-0.44901-44.739 27.428-57.034zm-140.41 127.35-30.041 18.286c12.517 23.619 32.661 34.331 57.469 33.632 31.832-0.89679 49.166-18.985 52.898-46.694v-135.18h-36.571v131.92s-1.7554 9.7346-7.3469 13.388c-6.1224 4-15.515 3.4299-20 1.8776-8.4898-2.9388-16.408-17.224-16.408-17.224zm283.43 48.715v-397.06c-0.6806-27.247-18.196-56.909-57.472-57.469h-397.06c-30.367-0.22923-57.066 23.532-57.469 57.469v397.06c0.40335 33.937 27.102 57.698 57.469 57.469h397.06c39.277-0.55974 56.792-30.222 57.472-57.469zm-30.044 0c-0.25736 10.97-5.6909 25.189-27.428 26.775h-397.06c-14.287-0.11206-26.453-9.7889-26.775-26.775v-397.06c0.32212-16.986 12.488-26.663 26.775-26.775h397.06c21.737 1.586 27.171 15.805 27.428 26.775v397.06z" fill="#fed665"/>
</svg>
