<svg width="512mm" height="512mm" fill="none" version="1.1" viewBox="0 0 1935.1 1935.1" xmlns="http://www.w3.org/2000/svg" xmlns:xlink="http://www.w3.org/1999/xlink">
<path d="m559.15 0c-205.52 0-372.14 166.61-372.14 372.14v260.5c0 82.209-66.647 148.86-148.86 148.86h-37.213v372.14h37.213c82.209 0 148.86 66.645 148.86 148.85v260.5c0 192.68 146.47 351.19 334.12 370.25 12.51 1.2706 25.168 1.8887 38.014 1.8887h223.28v-409.35h-186.07v-446.56c0-61.66-49.983-111.64-111.64-111.64v-37.213c61.659 0 111.64-49.983 111.64-111.64v-409.35h186.07v-409.35zm593.54 0v409.35h186.07v409.35c0 61.659 49.981 111.64 111.64 111.64v37.213c-61.659 0-111.64 49.983-111.64 111.64v446.56h-186.07v409.35h223.28c12.845 0 25.504-0.6181 38.014-1.8887 187.65-19.057 334.12-177.57 334.12-370.25v-260.5c0-82.209 66.646-148.85 148.86-148.85h37.215v-372.14h-37.215c-82.209 0-148.86-66.647-148.86-148.86v-260.5c0-205.52-166.61-372.14-372.14-372.14z" fill="#fb9767" stroke-width="37.214"/>
</svg>
