<svg width="512mm" height="512mm" version="1.1" viewBox="0 0 1935.1 1935.1" xmlns="http://www.w3.org/2000/svg">
<path d="m1045.4 734.31c-2.5113 7.0491-5.2509 13.984-8.2476 20.776 8.7757-7.0634 17.68-13.998 26.683-20.776z" fill="#d95845" stroke-width="142.69"/>
<path d="m862.81 0.00619c-144.36 0-261.41 117.06-261.41 261.42 0 2.3228 1.2828 224.82 108.07 486.16-54.894 151.06-121.5 302.76-198.28 452.04-167.69 78.893-306.2 173.47-412.02 281.47-48.643 50.242-73.087 115.02-73.087 192.9 0 143.96 117.13 261.1 261.1 261.1 84.272 0 163.71-40.782 212.41-109.09 57.133-80.218 143.42-209.91 237.76-381.98 123.29-49.57 264.37-91.448 420.45-124.85 105.73 74.743 225.51 134.93 356.68 179.09 35.33 12.1 73.371 18.322 112.61 18.322 158.1 0 281.93-126.34 281.93-287.64 0-158.65-129.07-287.71-287.71-287.71h-28.913c-21.276 0.9693-160.05 8.9051-354.05 41.882-76.682-70.89-141.45-153.61-192.96-248.82 6.8493-20.979 13.585-42.122 20.148-63.554h0.019c11.186-44.968 58.431-246.13 58.431-409.45 0.2446-144.25-116.83-261.3-261.19-261.3zm-0.091 209.01c28.824 0 52.316 23.472 52.316 52.31h-0.01c0 118.7-32.062 271.88-44.833 328.53-58.19-176.39-59.756-315.29-59.756-328.56 0-28.868 23.414-52.279 52.279-52.279zm24.147 661.79c49.855 85.213 113.61 170.59 194.77 249.48-109.57 25.199-228.19 57.195-346.03 99.345 51.595-105.18 103.17-222.09 151.24-348.82zm707.81 280.29h26.161c43.222 0 78.422 35.118 78.422 84.205 0 40.026-32.578 72.73-72.73 72.73-15.825 0-31.664-2.4693-45.662-7.3492-96.217-32.292-180.34-72.733-253.92-118.54 157.7-24.801 265.39-31.048 267.73-31.048zm-1097.5 290.99c-73.742 127.09-136.17 217.6-168.16 262.08-25.541 36.588-93.877 21.673-93.877-41.452 0-13.684 4.9108-26.753 13.501-35.543 70.376-71.931 155.59-133.05 248.54-185.09z" fill="#d95845" stroke-width="3.097"/>
</svg>
